<svg width="25" height="17" viewBox="0 0 25 17" fill="none" xmlns="http://www.w3.org/2000/svg">
<path d="M1.38889 17C0.995375 17 0.665745 16.864 0.400005 16.592C0.134264 16.32 0.000930715 15.9838 4.78926e-06 15.5833C-0.000921136 15.1829 0.132412 14.8467 0.400005 14.5747C0.667597 14.3027 0.997227 14.1667 1.38889 14.1667H23.6111C24.0046 14.1667 24.3347 14.3027 24.6014 14.5747C24.868 14.8467 25.0009 15.1829 25 15.5833C24.9991 15.9838 24.8657 16.3205 24.6 16.5934C24.3343 16.8663 24.0046 17.0019 23.6111 17H1.38889ZM1.38889 9.91666C0.995375 9.91666 0.665745 9.78066 0.400005 9.50866C0.134264 9.23666 0.000930715 8.90043 4.78926e-06 8.49999C-0.000921136 8.09955 0.132412 7.76332 0.400005 7.49132C0.667597 7.21933 0.997227 7.08333 1.38889 7.08333H23.6111C24.0046 7.08333 24.3347 7.21933 24.6014 7.49132C24.868 7.76332 25.0009 8.09955 25 8.49999C24.9991 8.90043 24.8657 9.23713 24.6 9.51007C24.3343 9.78302 24.0046 9.91854 23.6111 9.91666H1.38889ZM1.38889 2.83333C0.995375 2.83333 0.665745 2.69733 0.400005 2.42533C0.134264 2.15333 0.000930715 1.81711 4.78926e-06 1.41667C-0.000921136 1.01622 0.132412 0.679999 0.400005 0.408C0.667597 0.136 0.997227 0 1.38889 0H23.6111C24.0046 0 24.3347 0.136 24.6014 0.408C24.868 0.679999 25.0009 1.01622 25 1.41667C24.9991 1.81711 24.8657 2.1538 24.6 2.42675C24.3343 2.69969 24.0046 2.83522 23.6111 2.83333H1.38889Z" fill="white"/>
</svg>
