<svg width="24" height="24" viewBox="0 0 24 24" fill="none" xmlns="http://www.w3.org/2000/svg">
<path d="M8.94007 20.74C7.45721 20.7458 6.02749 20.1882 4.94007 19.18C4.41049 18.6904 3.98793 18.0965 3.69893 17.4356C3.40993 16.7748 3.26074 16.0613 3.26074 15.34C3.26074 14.6188 3.40993 13.9053 3.69893 13.2445C3.98793 12.5836 4.41049 11.9897 4.94007 11.5L12.5001 4.36005C13.2776 3.65032 14.2923 3.25684 15.3451 3.25684C16.3978 3.25684 17.4125 3.65032 18.1901 4.36005C18.5955 4.73639 18.9205 5.19087 19.1456 5.69612C19.3708 6.20138 19.4913 6.74697 19.5001 7.30005C19.5028 7.77802 19.4065 8.25137 19.2171 8.69025C19.0278 9.12914 18.7496 9.52404 18.4001 9.85005L10.8301 17C10.3733 17.4239 9.77319 17.6594 9.15007 17.6594C8.52695 17.6594 7.92685 17.4239 7.47007 17C7.24341 16.7912 7.0625 16.5376 6.93875 16.2554C6.81501 15.9731 6.75113 15.6682 6.75113 15.36C6.75113 15.0518 6.81501 14.747 6.93875 14.4647C7.0625 14.1824 7.24341 13.9289 7.47007 13.72L14.4701 7.13005C14.6107 6.9896 14.8013 6.91071 15.0001 6.91071C15.1988 6.91071 15.3894 6.9896 15.5301 7.13005C15.6705 7.27067 15.7494 7.4613 15.7494 7.66005C15.7494 7.8588 15.6705 8.04942 15.5301 8.19005L8.53007 14.78C8.45155 14.8486 8.38862 14.9331 8.3455 15.028C8.30238 15.1228 8.28007 15.2258 8.28007 15.33C8.28007 15.4343 8.30238 15.5373 8.3455 15.6321C8.38862 15.727 8.45155 15.8115 8.53007 15.88C8.7112 16.035 8.94171 16.1201 9.18007 16.1201C9.41842 16.1201 9.64893 16.035 9.83007 15.88L17.4001 8.75005C17.5927 8.56129 17.7451 8.33553 17.8482 8.08635C17.9513 7.83717 18.003 7.56971 18.0001 7.30005C17.9918 6.95248 17.9131 6.6102 17.7687 6.29393C17.6243 5.97767 17.4173 5.69398 17.1601 5.46005C16.6664 5.0025 16.0182 4.74828 15.3451 4.74828C14.672 4.74828 14.0237 5.0025 13.5301 5.46005L6.00007 12.59C5.61874 12.9395 5.31425 13.3644 5.10594 13.8378C4.89764 14.3113 4.79007 14.8228 4.79007 15.34C4.79007 15.8573 4.89764 16.3688 5.10594 16.8423C5.31425 17.3157 5.61874 17.7406 6.00007 18.09C6.81458 18.8492 7.88662 19.2714 9.00007 19.2714C10.1135 19.2714 11.1856 18.8492 12.0001 18.09L19.4901 11C19.559 10.9293 19.6414 10.8731 19.7325 10.8347C19.8235 10.7963 19.9213 10.7765 20.0201 10.7765C20.1189 10.7765 20.2167 10.7963 20.3077 10.8347C20.3987 10.8731 20.4811 10.9293 20.5501 11C20.6905 11.1407 20.7694 11.3313 20.7694 11.53C20.7694 11.7288 20.6905 11.9194 20.5501 12.06L13.0001 19.18C11.8981 20.2034 10.4438 20.7622 8.94007 20.74Z" fill="#171717"/>
</svg>
