<svg width="135" height="61" viewBox="0 0 135 61" fill="none" xmlns="http://www.w3.org/2000/svg">
<path d="M108.011 0L90.859 33.1738L73.7027 0H18.7599C7.80122 0 2.33748 3.26754 0.618322 12.0166C0.19969 14.1453 0.00171407 18.4703 0.00171407 21.1166C-0.0190767 24.1381 0.149287 27.158 0.505819 30.1584C1.90082 39.2 6.57256 42.9942 18.7599 42.9942H49.1343L63.7882 61V14.1543L88.4558 60.9998H93.2623L117.93 14.1543V60.9998H134.199V0H108.011ZM49.1345 30.2439H20.0697C18.7497 30.2434 17.4839 29.7188 16.5505 28.7854C15.6171 27.852 15.0925 26.5862 15.092 25.2662V16.9943C15.0925 15.6743 15.6171 14.4085 16.5505 13.4751C17.4838 12.5417 18.7497 12.0171 20.0697 12.0166H49.1343L49.1345 30.2439Z" fill="#171717"/>
<path d="M15.1096 48.7969H2.90674V60.9997H15.1096V48.7969Z" fill="#171717"/>
</svg>
